Coordinates
version=1
nRows=33
nColumns=28
inDegrees=yes

Units are S.I. units (second, meters, Newtons, ...)
If the header above contains a line with 'inDegrees', this indicates whether rotational values are in degrees (yes) or radians (no).

endheader
time	pelvis_tilt	pelvis_list	pelvis_rotation	pelvis_tx	pelvis_ty	pelvis_tz	hip_flexion_r	hip_adduction_r	hip_rotation_r	knee_angle_r	knee_angle_r_ie	knee_angle_r_vv	ankle_angle_r	subtalar_angle_r	mtp_angle_r	hip_flexion_l	hip_adduction_l	hip_rotation_l	knee_angle_l	knee_angle_l_ie	knee_angle_l_vv	ankle_angle_l	subtalar_angle_l	mtp_angle_l	lumbar_extension	lumbar_bending	lumbar_rotation
3.025	0.92454767	4.2750485	17.99649053	-0.81212611	0.91654517	0.37838829	-7.79964247	-5.69371993	-17.35447395	-2.45069341	-15.71524116	-0.37258269	8.332971	-9.27768581	0	-3.76598295	3.24450606	5.65449155	0.79424107	16.10475426	-3.1992071	7.66618136	0.29996519	0	-6.60926108	-5.08158396	0.79168532
3.03	0.90233479	4.26685866	17.97184712	-0.81210667	0.91648834	0.37825651	-7.78894237	-5.70662823	-17.23998536	-2.40720339	-15.80487904	-0.35540759	8.13408983	-9.49907067	0	-3.7191236	3.26660307	5.70597074	0.74791962	16.05741957	-3.19859523	7.72557239	0.00674482	0	-6.60082332	-5.08794619	0.80617158
3.035	0.90072801	4.25558804	17.94653137	-0.81210161	0.91644814	0.37814444	-7.79272537	-5.70729629	-17.22217359	-2.38928545	-15.77769799	-0.35022248	8.12615418	-9.50222809	0	-3.678421	3.28301283	5.69825668	0.68872583	16.05904739	-3.1744909	7.72493765	-0.01659421	0	-6.64705391	-5.09792995	0.80034772
3.04	0.89778691	4.19416672	17.91718512	-0.81211311	0.91639113	0.37812931	-7.75901598	-5.64550244	-17.16821388	-2.39262215	-15.75016853	-0.36425011	8.07657119	-9.56770665	0	-3.62629459	3.23454131	5.71990289	0.63882739	16.01981697	-3.16921616	7.79345402	-0.15970149	0	-6.66840625	-5.05315789	0.7590318
3.045	0.90000956	4.2239541	17.86459007	-0.81200196	0.91639899	0.37786586	-7.79756564	-5.72050796	-17.0873338	-2.3639262	-15.7500019	-0.31515393	8.01938574	-9.67351004	0	-3.61998041	3.30566427	5.63461994	0.57953673	15.90890379	-3.14606091	7.82824244	-0.3019803	0	-6.69373576	-5.08073114	0.76076993
3.05	0.90356318	4.20584417	17.83688081	-0.81201955	0.91637983	0.377722	-7.79474028	-5.71885547	-17.06364649	-2.36027978	-15.69433035	-0.31002773	8.00631475	-9.68094675	0	-3.57510964	3.30876227	5.64211849	0.49708379	15.90138218	-3.13808189	7.8376966	-0.33203681	0	-6.74071043	-5.0727933	0.75778814
3.055	0.88962044	4.12465893	17.82526708	-0.81200093	0.91632286	0.37763542	-7.76394862	-5.63880663	-17.0501816	-2.34797837	-15.7249668	-0.30411511	7.96832025	-9.72281823	0	-3.50936191	3.23522137	5.69194372	0.44636791	15.81909209	-3.14558156	7.94793009	-0.50878978	0	-6.73738289	-5.01177363	0.71359519
3.06	0.87670649	4.15648146	17.76970922	-0.81193427	0.9163284	0.37733223	-7.77797223	-5.7280333	-17.0127827	-2.32518823	-15.70213702	-0.27491277	7.91186499	-9.73489693	0	-3.47678789	3.3141818	5.62386573	0.36463167	15.73930883	-3.13531197	7.99115212	-0.62829202	0	-6.76087343	-5.046328	0.68301576
3.065	0.87506572	4.12254863	17.72072418	-0.81184096	0.91630676	0.37715182	-7.79227861	-5.71598868	-16.91568391	-2.27632465	-15.70027298	-0.24861438	7.82055724	-9.86677533	0	-3.44983579	3.30544735	5.57006701	0.32294531	15.52443944	-3.12347063	7.96492538	-0.99511708	0	-6.76699437	-5.02408662	0.69572639
3.07	0.88045086	4.10254898	17.68732922	-0.81180549	0.91628521	0.3769319	-7.80949694	-5.72833247	-16.83899628	-2.27072946	-15.66385692	-0.21347893	7.81882921	-9.91706579	0	-3.4088655	3.31766851	5.55401514	0.22886915	15.46080458	-3.11235284	8.05724218	-1.08947207	0	-6.80122957	-5.00580028	0.65664961
3.075	0.88722949	4.0622308	17.66925179	-0.81172047	0.91626133	0.37669817	-7.8469845	-5.71053656	-16.74142162	-2.20856589	-15.70973477	-0.16893907	7.75813179	-9.99839846	0	-3.3721151	3.30674805	5.52488493	0.14761341	15.342095	-3.09867033	8.1801784	-1.2355175	0	-6.82473717	-4.97642369	0.61287981
3.08	0.88511033	3.97532032	17.66737806	-0.81169541	0.91618411	0.37651786	-7.85365342	-5.6296229	-16.66039515	-2.16224556	-15.75525168	-0.13199095	7.71042284	-10.08199715	0	-3.30613002	3.25643331	5.53323183	0.08292132	15.26744649	-3.06837842	8.24859149	-1.38616142	0	-6.83534545	-4.90578423	0.57132047
3.085	0.88211142	3.95546359	17.62819035	-0.81160478	0.91615262	0.37625925	-7.8915735	-5.63609393	-16.59965374	-2.08166811	-15.82989027	-0.11123993	7.6218508	-10.06913956	0	-3.27021131	3.27127624	5.50194869	0.00201736	15.23819038	-3.06671835	8.33422127	-1.50328412	0	-6.84877855	-4.90728486	0.54960452
3.09	0.87527031	3.93332294	17.60154279	-0.81153976	0.91609485	0.3759169	-7.92536403	-5.65558526	-16.56584272	-2.01420051	-15.81130473	-0.07438103	7.61037053	-10.06014847	0	-3.23346686	3.29028664	5.51111492	-0.05898306	15.23194373	-3.04723179	8.35392381	-1.52900131	0	-6.86671421	-4.88807461	0.55065971
3.095	0.88217166	3.92837747	17.54449096	-0.81147037	0.91604597	0.37563091	-7.96746257	-5.68462268	-16.4610826	-1.96007234	-15.87060514	-0.03702403	7.53453826	-10.08860039	0	-3.21717679	3.31719366	5.48882341	-0.13806904	15.19386116	-3.05220326	8.53921242	-1.66143336	0	-6.90885032	-4.89579509	0.52793782
3.1	0.90856903	3.95149462	17.47607865	-0.81133279	0.91605582	0.37523854	-8.04846669	-5.75942721	-16.35108786	-1.91146069	-15.90965407	0.02964268	7.4746387	-10.14763607	0	-3.240068	3.36441171	5.43549185	-0.21414811	15.12931575	-3.05768665	8.64721179	-1.74089616	0	-6.9512161	-4.91828572	0.55510238
3.105	0.91592019	3.94272225	17.42844181	-0.81129304	0.91600928	0.37493642	-8.06939517	-5.78804411	-16.28099749	-1.903379	-15.85801328	0.05150464	7.44593443	-10.19012473	0	-3.20953971	3.38682764	5.42984002	-0.3068887	15.12333669	-3.05970223	8.72469848	-1.79916761	0	-7.00403163	-4.9268958	0.55166834
3.11	0.92101289	3.92257583	17.38085436	-0.81119872	0.91596548	0.37458409	-8.09357412	-5.80272709	-16.22917178	-1.8844036	-15.86497925	0.08572084	7.40937095	-10.2348118	0	-3.18540706	3.40312627	5.41667358	-0.38482217	15.08176963	-3.04763191	8.84707151	-1.88139069	0	-7.03142937	-4.91885997	0.56282642
3.115	0.92442212	3.89743437	17.3431401	-0.81111366	0.91592777	0.3741852	-8.10952373	-5.82112062	-16.22142146	-1.84793065	-15.87025316	0.09525427	7.38376494	-10.22240341	0	-3.15727406	3.41797058	5.415484	-0.45602675	15.07749912	-3.03330556	8.87719794	-1.90969835	0	-7.055412	-4.89936514	0.5685865
3.12	0.92728664	3.88258453	17.2731469	-0.81103886	0.91587695	0.3738415	-8.09924519	-5.84436271	-16.18919111	-1.86010539	-15.88673589	0.09478698	7.31365893	-10.18774508	0	-3.13595716	3.43698431	5.38719138	-0.5258577	15.04352874	-3.03771177	9.02987719	-2.00661209	0	-7.08748983	-4.91747032	0.56909654
3.125	0.93032138	3.86560707	17.21599211	-0.81095688	0.91583364	0.37345345	-8.08975576	-5.86685469	-16.14744677	-1.87701894	-15.88599908	0.09491965	7.29725546	-10.17660572	0	-3.11349603	3.45519583	5.37975883	-0.59988334	14.99240839	-3.03195958	9.12936702	-2.09184409	0	-7.10568167	-4.91572105	0.57785897
3.13	0.93932437	3.84619142	17.17165189	-0.81087077	0.91580304	0.37305144	-8.08563208	-5.88471853	-16.11975561	-1.89667961	-15.86855108	0.09468154	7.28460458	-10.16695426	0	-3.09616535	3.46958793	5.38728291	-0.67113897	14.98595552	-3.02177686	9.15766047	-2.12189153	0	-7.12987508	-4.91601735	0.57630038
3.135	0.93770855	3.82546822	17.08087676	-0.81073908	0.91575619	0.37269018	-8.05327058	-5.91215657	-16.04152836	-1.93429171	-15.86186052	0.09037204	7.26367285	-10.15804198	0	-3.08391089	3.48191637	5.35849442	-0.71733367	14.97057151	-3.03489339	9.30296447	-2.24360166	0	-7.13434913	-4.9294699	0.58534776
3.14	0.9477908	3.80676171	17.02535764	-0.81066306	0.91573512	0.37227566	-8.04063317	-5.93583311	-16.00985962	-1.96894192	-15.84967874	0.08505323	7.24502501	-10.14588233	0	-3.07534309	3.49259051	5.38571989	-0.77637362	14.95229437	-3.03347398	9.33001544	-2.27396653	0	-7.16366935	-4.9370229	0.58701733
3.145	0.95017732	3.78590908	16.93290205	-0.81053419	0.91568115	0.37189128	-8.01691529	-5.95774566	-15.94397971	-1.99056758	-15.86003723	0.07532512	7.21581788	-10.11551119	0	-3.07444051	3.49949898	5.38000149	-0.81356393	14.9405202	-3.05117142	9.47066805	-2.42112037	0	-7.16908439	-4.95609224	0.61228442
3.15	0.94897362	3.77814394	16.84557442	-0.81044901	0.91560846	0.37148375	-7.995576	-5.99155696	-15.91904531	-2.01219309	-15.76165682	0.06144105	7.19716331	-10.11815239	0	-3.07216291	3.52685125	5.37925937	-0.84959463	14.95563921	-3.06124146	9.53082274	-2.49073542	0	-7.19457975	-4.99651834	0.62105908
3.155	0.96757095	3.76402126	16.7742724	-0.81033046	0.91557417	0.37104272	-7.99423875	-6.00974546	-15.88293574	-2.02912217	-15.76786415	0.03713895	7.16534224	-10.10869018	0	-3.09711379	3.53595457	5.3976523	-0.87616601	14.96433541	-3.08111101	9.61443836	-2.56321827	0	-7.23459825	-5.02100935	0.63248439
3.16	1.00254971	3.75194046	16.69732465	-0.8101795	0.91555912	0.37059058	-8.01487634	-6.02785401	-15.80646798	-2.04443225	-15.77672417	0.02066516	7.13186122	-10.1046629	0	-3.14769382	3.54325318	5.42065711	-0.89619208	14.99387447	-3.10119029	9.71022634	-2.64571641	0	-7.27326271	-5.04011337	0.64572064
3.165	1.05124594	3.73451399	16.61873334	-0.81001813	0.91555745	0.37014398	-8.04260307	-6.03908361	-15.71934851	-2.06512702	-15.79527485	0.00271663	7.09146896	-10.11787472	0	-3.21794798	3.53406448	5.44268689	-0.90093764	15.01320666	-3.13021508	9.80064607	-2.72499372	0	-7.34055601	-5.05929642	0.66562505
3.17	1.08920898	3.70640356	16.53718751	-0.80987228	0.91555116	0.36968	-8.04391029	-6.03748197	-15.66354961	-2.09607519	-15.75252001	-0.03710577	7.04700955	-10.11574214	0	-3.26875697	3.51696622	5.46926452	-0.91908465	15.05696658	-3.1617492	9.8645643	-2.7687986	0	-7.3873688	-5.07417799	0.66561404
3.175	1.12723663	3.69032559	16.46241242	-0.80973476	0.91552616	0.3691846	-8.05433714	-6.06346298	-15.60485921	-2.14669258	-15.75387191	-0.0487828	7.01673327	-10.10553646	0	-3.32619378	3.51122835	5.51850546	-0.9302277	15.0962168	-3.19168467	9.94845856	-2.81894973	0	-7.44022784	-5.10336483	0.66633316
3.18	1.16725969	3.62966326	16.40299311	-0.80962508	0.91550904	0.36875259	-8.02214719	-6.01027913	-15.59021973	-2.21087969	-15.72171775	-0.11507324	6.98389479	-10.0959492	0	-3.37781225	3.45004889	5.59804283	-0.91981418	15.14194422	-3.21624844	10.0072075	-2.85664859	0	-7.48892196	-5.09598467	0.65996206
3.185	1.20830357	3.6038333	16.33932535	-0.80947418	0.91551161	0.36822576	-7.99891678	-6.0225094	-15.56457622	-2.31516632	-15.69211135	-0.14419181	6.96392688	-10.0894556	0	-3.44085074	3.42801191	5.64273309	-0.92338698	15.18803371	-3.25138749	10.06719302	-2.8863349	0	-7.54189798	-5.11976751	0.63659191
